{"title":"Cinderella Once Upon A Time In The West 2013 DVDRip x264 AC3-OFF","uid":8264267,"size":1556892784,"categoryP":"video","categoryS":"movies","magnet":"?xt=urn:btih:b9f2a81ebce8b404f55c3661aed92bf49fe86a54&amp;dn=Cinderella+Once+Upon+A+Time+In+The+West+2013+DVDRip+x264+AC3-OFF&amp;tr=udp%3A%2F%2Ftracker.openbittorrent.com%3A80&amp;tr=udp%3A%2F%2Fopen.demonii.com%3A1337&amp;tr=udp%3A%2F%2Ftracker.coppersurfer.tk%3A6969&amp;tr=udp%3A%2F%2Fexodus.desync.com%3A6969","seeders":1,"leechers":0,"uploader":"sceneline","files":5,"time":1363455607,"description":"-\n\n      the fast  and The Hottest Private Tracker on the net\n\nPlease Seed back to make the speed Faster!!\n ............ NFO .............\n-[IMG]http://i.imgur.com/sOdarLF.png[/IMG]\n\nSource: NTSC DVDR-NiNJA - Thanks\n &lt;a href=&quot;\nhttp://www.walmart.com/msharbor/ip/22036707?adid=1500000000000012981640&amp;veh=mweb&quot; rel=&quot;nofollow&quot; target=&quot;_NEW&quot;&gt;\nhttp://www.walmart.com/msharbor/ip/22036707?adid=1500000000000012981640&amp;veh=mweb&lt;/a&gt;\n\nOnce upon a time... In the west, there was a secluded, pigtailed cowgirl who worked day and night for her wicked stepmother and evil stepsisters in their dusty frontier town. But this is not your typical &quot;Cinderella&quot; story.\n\nGeneral\nComplete name                            : Cinderella Once Upon A Time In The West 2013 DVDRip x264 AC3-OFFLiNE.mkv\nFormat                                   : Matroska\nFormat version                           : Version 4 / Version 2\nFile size                                : 1.43 GiB\nDuration                                 : 1h 21mn\nOverall bit rate mode                    : Variable\nOverall bit rate                         : 2 518 Kbps\nEncoded date                             : UTC 2013-03-11 00:58:07\nWriting application                      : mkvmerge v6.1.0 ('Old Devil') built on Mar  2 2013 14:32:37\nWriting library                          : libebml v1.3.0 + libmatroska v1.4.0\n\nVideo\nID                                       : 1\nFormat                                   : AVC\nFormat/Info                              : Advanced Video Codec\nFormat profile                           : &lt;a class=&quot;__cf_email__&quot; href=&quot;/cdn-cgi/l/email-protection&quot; data-cfemail=&quot;ffb7969897bfb3cbd1ce&quot;&gt;[email&amp;#160;protected]&lt;/a&gt;&lt;script cf-hash='f9e31' type=&quot;text/javascript&quot;&gt;\n/* &lt;![CDATA[ */!function(){try{var t=&quot;currentScript&quot;in document?document.currentScript:function(){for(var t=document.getElementsByTagName(&quot;script&quot;),e=t.length;e--;)if(t[e].getAttribute(&quot;cf-hash&quot;))return t[e]}();if(t&amp;&amp;t.previousSibling){var e,r,n,i,c=t.previousSibling,a=c.getAttribute(&quot;data-cfemail&quot;);if(a){for(e=&quot;&quot;,r=parseInt(a.substr(0,2),16),n=2;a.length-n;n+=2)i=parseInt(a.substr(n,2),16)^r,e+=String.fromCharCode(i);e=document.createTextNode(e),c.parentNode.replaceChild(e,c)}}}catch(u){}}();/* ]]&gt; */&lt;/script&gt;\nFormat settings, CABAC                   : Yes\nFormat settings, ReFrames                : 3 frames\nCodec ID                                 : V_MPEG4/ISO/AVC\nDuration                                 : 1h 21mn\nBit rate mode                            : Variable\nBit rate                                 : 2 068 Kbps\nMaximum bit rate                         : 40.0 Mbps\nWidth                                    : 720 pixels\nHeight                                   : 400 pixels\nDisplay aspect ratio                     : 16:9\nFrame rate mode                          : Constant\nFrame rate                               : 23.976 fps\nColor space                              : YUV\nChroma subsampling                       : 4:2:0\nBit depth                                : 8 bits\nScan type                                : Progressive\nBits/(Pixel*Frame)                       : 0.299\nStream size                              : 1.15 GiB (80%)\nWriting library                          : x264 core 130 r2273 b3065e6\n\nAudio\nID                                       : 2\nFormat                                   : AC-3\nFormat/Info                              : Audio Coding 3\nMode extension                           : CM (complete main)\nFormat settings, Endianness              : Big\nCodec ID                                 : A_AC3\nDuration                                 : 1h 21mn\nBit rate mode                            : Constant\nBit rate                                 : 448 Kbps\nChannel(s)                               : 6 channels\nChannel positions                        : Front: L C R, Side: L R, LFE\nSampling rate                            : 48.0 KHz\nBit depth                                : 16 bits\nCompression mode                         : Lossy\nStream size                              : 261 MiB (18%)\nLanguage                                 : English\nDefault                                  : Yes\nForced                                   : No\n\n[IMG]http://i.imgur.com/nCGjt4H.png[/IMG]\n[IMG]http://i.imgur.com/vj5gpHm.png[/IMG]\n[IMG]http://i.imgur.com/vwjb5IJ.png[/IMG]\n[IMG]http://i.imgur.com/2XzQ6uv.png[/IMG]\n\nGreets: To Our Friends","torrent":{"xt":"urn:btih:b9f2a81ebce8b404f55c3661aed92bf49fe86a54","amp;dn":"Cinderella+Once+Upon+A+Time+In+The+West+2013+DVDRip+x264+AC3-OFF","amp;tr":["udp%3A%2F%2Ftracker.openbittorrent.com%3A80","udp%3A%2F%2Fopen.demonii.com%3A1337","udp%3A%2F%2Ftracker.coppersurfer.tk%3A6969","udp%3A%2F%2Fexodus.desync.com%3A6969"],"infoHash":"b9f2a81ebce8b404f55c3661aed92bf49fe86a54","infoHashBuffer":{"type":"Buffer","data":[185,242,168,30,188,232,180,4,245,92,54,97,174,217,43,244,159,232,106,84]},"announce":[],"urlList":[]}}